<?xml version="1.0" standalone="no"?>
<!DOCTYPE svg PUBLIC "-//W3C//DTD SVG 20010904//EN"
 "http://www.w3.org/TR/2001/REC-SVG-20010904/DTD/svg10.dtd">
<svg version="1.0" xmlns="http://www.w3.org/2000/svg"
 width="996.000000pt" height="996.000000pt" viewBox="0 0 996.000000 996.000000"
 preserveAspectRatio="xMidYMid meet">
<metadata>
Created by potrace 1.14, written by Peter Selinger 2001-2017
</metadata>
<g transform="translate(0.000000,996.000000) scale(0.100000,-0.100000)"
fill="#000000" stroke="none">
<path d="M4889 9955 c-2 -1 -22 -5 -44 -8 -99 -15 -197 -56 -370 -156 -49 -29
-103 -60 -119 -69 -95 -54 -193 -113 -203 -122 -7 -6 -13 -8 -13 -5 0 3 -17
-5 -37 -18 -21 -13 -45 -27 -53 -30 -8 -4 -28 -16 -45 -27 -55 -36 -65 -41
-65 -33 0 4 -4 3 -8 -3 -6 -9 -63 -43 -192 -116 -19 -11 -39 -24 -45 -28 -5
-4 -37 -22 -70 -40 -71 -39 -141 -80 -210 -121 -27 -17 -58 -33 -67 -36 -10
-3 -18 -9 -18 -14 0 -5 -6 -9 -14 -9 -8 0 -22 -7 -30 -16 -9 -8 -16 -13 -16
-9 0 4 -7 -1 -16 -9 -8 -9 -21 -16 -28 -16 -7 0 -22 -9 -34 -20 -12 -11 -24
-20 -27 -20 -5 0 -89 -43 -115 -60 -39 -25 -151 -90 -155 -90 -2 0 -44 -24
-92 -53 -48 -29 -99 -58 -113 -65 -14 -7 -54 -30 -90 -52 -36 -22 -71 -40 -77
-40 -7 0 -13 -4 -13 -8 0 -5 -27 -23 -60 -40 -33 -18 -81 -46 -108 -62 -26
-16 -75 -44 -109 -61 -35 -18 -63 -36 -63 -41 0 -4 -5 -8 -11 -8 -6 0 -47 -22
-92 -48 -45 -27 -89 -51 -97 -55 -8 -4 -28 -16 -45 -27 -16 -11 -41 -25 -55
-30 -13 -6 -27 -14 -30 -18 -3 -4 -16 -13 -30 -19 -14 -7 -47 -26 -75 -43 -27
-17 -61 -35 -75 -41 -13 -6 -27 -14 -30 -18 -8 -12 -100 -62 -100 -55 0 4 -8
0 -17 -8 -19 -17 -94 -62 -183 -111 -30 -17 -67 -38 -82 -49 -14 -10 -28 -18
-31 -18 -3 0 -41 -21 -84 -47 -43 -25 -94 -55 -113 -65 -61 -32 -100 -57 -122
-78 -12 -11 -25 -20 -30 -20 -11 0 -106 -98 -148 -155 -49 -65 -116 -196 -125
-245 -2 -8 -4 -15 -5 -15 -1 0 -3 -11 -5 -25 -1 -14 -7 -43 -14 -65 -13 -48
-11 -4414 3 -4455 4 -14 10 -36 13 -50 2 -14 8 -34 12 -45 33 -83 61 -139 98
-196 46 -70 168 -199 190 -199 7 0 13 -4 13 -9 0 -10 221 -141 239 -141 6 0
11 -5 11 -10 0 -6 18 -17 40 -26 22 -9 40 -19 40 -23 0 -4 16 -13 35 -20 19
-7 35 -17 35 -22 0 -5 6 -9 13 -10 6 0 53 -24 102 -54 50 -30 106 -62 125 -72
19 -9 37 -19 40 -22 5 -6 17 -13 99 -59 25 -14 63 -36 83 -49 21 -12 42 -23
48 -23 5 0 10 -4 10 -10 0 -5 4 -10 9 -10 5 0 64 -32 130 -70 67 -39 126 -70
131 -70 6 0 10 -4 10 -9 0 -5 8 -11 18 -14 17 -6 63 -32 155 -88 26 -16 51
-29 56 -29 5 0 11 -3 13 -7 2 -5 19 -16 38 -26 59 -30 95 -52 98 -59 2 -5 8
-8 13 -8 7 0 139 -73 179 -100 8 -6 31 -18 50 -28 19 -9 37 -20 38 -24 2 -5
10 -8 18 -8 8 0 14 -3 14 -8 0 -4 15 -14 33 -21 17 -8 55 -28 82 -45 28 -17
59 -36 70 -43 11 -7 43 -24 70 -39 28 -14 62 -35 77 -45 14 -11 29 -19 32 -19
4 0 23 -11 44 -23 20 -13 58 -35 83 -49 81 -45 94 -53 99 -58 3 -3 16 -11 30
-18 14 -7 48 -26 75 -42 28 -16 57 -33 65 -37 8 -4 49 -27 90 -51 41 -25 91
-54 110 -65 19 -10 78 -45 130 -75 52 -31 97 -57 100 -57 3 0 16 -8 30 -17 21
-13 228 -133 328 -190 64 -36 100 -56 123 -70 13 -7 26 -15 29 -18 3 -3 19
-12 35 -20 17 -8 32 -17 35 -20 15 -16 150 -73 217 -92 157 -44 402 -25 534
42 21 11 39 17 39 13 0 -5 7 1 16 12 8 11 18 20 22 19 15 -2 42 9 42 17 0 5 7
9 15 9 8 0 15 3 15 8 0 4 24 18 53 32 28 14 54 28 57 31 3 3 25 17 50 31 140
78 266 153 272 162 4 6 8 8 8 3 0 -4 18 4 40 18 22 14 43 25 47 25 3 0 14 6
22 14 9 7 41 26 71 42 30 16 57 31 60 34 10 10 66 41 93 51 15 6 27 14 27 18
0 4 16 13 35 21 19 8 35 17 35 22 0 4 4 8 9 8 14 0 134 71 143 84 4 6 8 8 8 3
0 -4 18 4 41 18 22 15 56 35 75 46 19 10 49 27 67 37 17 11 59 34 92 52 33 19
62 37 65 40 3 3 26 17 53 30 26 14 47 29 47 33 0 5 4 6 9 3 5 -3 19 3 32 13
13 10 48 31 78 47 30 16 61 34 70 39 33 20 187 110 223 130 123 68 194 110
200 119 5 7 8 7 8 1 0 -7 3 -7 8 0 7 9 49 34 99 59 13 6 23 14 23 19 0 4 5 7
11 7 6 0 37 15 68 34 66 40 125 74 164 93 15 8 27 19 27 24 0 5 4 8 8 7 6 -3
123 60 192 102 8 5 40 24 70 41 30 18 69 40 85 49 17 10 59 34 95 54 36 21 72
41 80 47 8 5 26 15 40 21 14 7 27 15 30 18 3 3 16 11 30 19 14 8 52 30 85 49
33 19 76 43 95 54 308 176 328 189 404 264 63 64 94 104 148 194 21 36 70 161
74 190 2 14 8 45 13 70 7 29 10 819 10 2220 0 2104 -1 2177 -19 2250 -30 117
-100 269 -134 292 -6 4 -8 8 -3 8 4 0 -7 17 -25 37 -98 109 -165 160 -343 259
-112 61 -140 79 -143 86 -2 4 -12 8 -23 8 -10 0 -19 4 -19 8 0 5 -17 17 -37
29 -71 38 -138 76 -175 100 -21 12 -40 23 -43 23 -2 0 -34 18 -70 40 -36 22
-67 40 -69 40 -2 0 -34 18 -70 40 -36 22 -70 40 -76 40 -5 0 -10 4 -10 8 0 5
-16 14 -35 22 -19 8 -35 17 -35 22 0 4 -5 8 -10 8 -6 0 -40 18 -76 40 -36 22
-68 40 -70 40 -2 0 -44 25 -95 55 -50 30 -93 55 -94 55 -2 0 -39 21 -82 47
-43 25 -96 56 -118 68 -22 11 -59 33 -82 48 -24 15 -45 27 -48 27 -2 0 -34 18
-70 40 -36 22 -70 40 -75 40 -6 0 -10 5 -10 10 0 6 -5 10 -11 10 -6 0 -39 17
-73 37 -33 21 -63 38 -66 38 -3 0 -24 13 -48 28 -24 15 -55 33 -70 40 -15 6
-29 14 -32 17 -4 5 -93 56 -204 120 -78 44 -142 81 -156 90 -8 6 -26 16 -40
22 -14 7 -27 15 -30 18 -3 3 -18 12 -35 20 -16 8 -37 19 -45 26 -8 6 -40 25
-70 42 -121 67 -666 381 -676 390 -6 5 -20 13 -32 16 -12 4 -28 13 -34 19 -11
11 -32 22 -123 71 -11 6 -22 13 -25 16 -22 22 -260 136 -260 125 0 -3 -12 0
-27 6 -16 6 -39 13 -53 15 -32 6 -247 14 -251 9z"/>
</g>
</svg>
