<svg id="D100" xmlns="http://www.w3.org/2000/svg" viewBox="0 0 484 503.39"><defs><style>.cls-1{fill:#fff;}.cls-2{fill:none;stroke:#000;stroke-miterlimit:10;stroke-width:8px;}</style></defs><title>d100_alt_svg</title><path class="cls-1" d="M256,503.69a49.53,49.53,0,0,1-15.33-2.43L124.24,463.44a49.32,49.32,0,0,1-24.81-18l-72-99A49.3,49.3,0,0,1,18,317.21V194.79a49.31,49.31,0,0,1,9.48-29.16l72-99a49.3,49.3,0,0,1,24.81-18L240.67,10.73a49.61,49.61,0,0,1,30.66,0L387.76,48.56a49.3,49.3,0,0,1,24.81,18l72,99A49.3,49.3,0,0,1,494,194.79V317.21a49.3,49.3,0,0,1-9.48,29.16l-72,99a49.32,49.32,0,0,1-24.8,18L271.33,501.27A49.54,49.54,0,0,1,256,503.69Z" transform="translate(-14 -4.31)"/><path class="cls-2" d="M34,194.79V317.21A33.61,33.61,0,0,0,40.42,337l72,99a33.61,33.61,0,0,0,16.81,12.21L245.61,486a33.61,33.61,0,0,0,20.77,0l116.43-37.83A33.61,33.61,0,0,0,399.62,436l72-99A33.61,33.61,0,0,0,478,317.21V194.79A33.61,33.61,0,0,0,471.58,175l-72-99a33.61,33.61,0,0,0-16.81-12.21L266.39,26a33.61,33.61,0,0,0-20.77,0L129.18,63.78A33.61,33.61,0,0,0,112.38,76l-72,99A33.61,33.61,0,0,0,34,194.79Z" transform="translate(-14 -4.31)"/><path class="cls-2" d="M256,503.69a49.53,49.53,0,0,1-15.33-2.43L124.24,463.44a49.32,49.32,0,0,1-24.81-18l-72-99A49.3,49.3,0,0,1,18,317.21V194.79a49.31,49.31,0,0,1,9.48-29.16l72-99a49.3,49.3,0,0,1,24.81-18L240.67,10.73a49.61,49.61,0,0,1,30.66,0L387.76,48.56a49.3,49.3,0,0,1,24.81,18l72,99A49.3,49.3,0,0,1,494,194.79V317.21a49.3,49.3,0,0,1-9.48,29.16l-72,99a49.32,49.32,0,0,1-24.8,18L271.33,501.27A49.54,49.54,0,0,1,256,503.69Z" transform="translate(-14 -4.31)"/><path d="M249.93,232.89a39,39,0,0,1-1.27,10.34,21,21,0,0,1-4,7.87,18,18,0,0,1-6.86,5.08,24.92,24.92,0,0,1-10,1.81,25.69,25.69,0,0,1-10.31-1.81,16.38,16.38,0,0,1-6.6-5,19.67,19.67,0,0,1-3.48-7.73,45.14,45.14,0,0,1-1-9.94,37.93,37.93,0,0,1,1.23-10,21.63,21.63,0,0,1,3.88-7.87,17.69,17.69,0,0,1,6.82-5.19,24.7,24.7,0,0,1,10.05-1.85,25.07,25.07,0,0,1,10.63,2,16.53,16.53,0,0,1,6.57,5.3A20.48,20.48,0,0,1,249,223.6,44.52,44.52,0,0,1,249.93,232.89Zm-19.81,70.33a7.62,7.62,0,0,1-1.34,1.42,6,6,0,0,1-1.71.91,10.61,10.61,0,0,1-2.47.51q-1.45.15-3.56.15a19.9,19.9,0,0,1-3.81-.29,4.2,4.2,0,0,1-2-.87,1.48,1.48,0,0,1-.51-1.34,4.43,4.43,0,0,1,.91-1.85l66.92-91.66a12,12,0,0,1,1.31-1.38,5,5,0,0,1,1.71-.94,11.17,11.17,0,0,1,2.5-.51q1.45-.14,3.56-.15a19.85,19.85,0,0,1,3.81.29,4.21,4.21,0,0,1,2,.87,1.44,1.44,0,0,1,.47,1.38,4.73,4.73,0,0,1-.87,1.81Zm5.44-69.82a45,45,0,0,0-.44-6.79,15.66,15.66,0,0,0-1.31-4.54,5.69,5.69,0,0,0-2.32-2.54,7,7,0,0,0-3.41-.8,6.49,6.49,0,0,0-3.19.76,5.84,5.84,0,0,0-2.29,2.47,14.3,14.3,0,0,0-1.34,4.43,42.88,42.88,0,0,0-.44,6.64,43.57,43.57,0,0,0,.51,7.37,14,14,0,0,0,1.45,4.5,5.16,5.16,0,0,0,2.32,2.25,7.74,7.74,0,0,0,3.19.62,6.63,6.63,0,0,0,3.48-.83,5.86,5.86,0,0,0,2.21-2.58,15.06,15.06,0,0,0,1.2-4.46A50,50,0,0,0,235.56,233.39Zm71,46.45a39,39,0,0,1-1.27,10.34,21,21,0,0,1-4,7.87,18,18,0,0,1-6.86,5.08,24.94,24.94,0,0,1-10,1.81,25.71,25.71,0,0,1-10.31-1.81,16.38,16.38,0,0,1-6.6-5,19.66,19.66,0,0,1-3.48-7.73,45.16,45.16,0,0,1-1-9.94,38,38,0,0,1,1.23-10,21.63,21.63,0,0,1,3.88-7.87,17.69,17.69,0,0,1,6.82-5.19,24.68,24.68,0,0,1,10.05-1.85,25.06,25.06,0,0,1,10.63,2,16.52,16.52,0,0,1,6.57,5.3,20.47,20.47,0,0,1,3.34,7.77A44.48,44.48,0,0,1,306.54,279.84Zm-14.37.51a45,45,0,0,0-.44-6.79,15.62,15.62,0,0,0-1.31-4.54,5.68,5.68,0,0,0-2.32-2.54,7,7,0,0,0-3.41-.8,6.5,6.5,0,0,0-3.19.76,5.84,5.84,0,0,0-2.29,2.47,14.32,14.32,0,0,0-1.34,4.43,43,43,0,0,0-.44,6.64,43.44,43.44,0,0,0,.51,7.37,14,14,0,0,0,1.45,4.5,5.16,5.16,0,0,0,2.32,2.25,7.75,7.75,0,0,0,3.19.62,6.63,6.63,0,0,0,3.48-.83,5.86,5.86,0,0,0,2.21-2.58,15.05,15.05,0,0,0,1.2-4.46A49.93,49.93,0,0,0,292.17,280.35Z" transform="translate(-14 -4.31)"/></svg>