<svg id="D100" xmlns="http://www.w3.org/2000/svg" viewBox="0 0 484 503.39"><defs><style>.cls-1{fill:#fff;}.cls-2{fill:none;stroke:#000;stroke-miterlimit:10;stroke-width:8px;}</style></defs><title>d100_svg</title><path class="cls-1" d="M256,503.69a49.53,49.53,0,0,1-15.33-2.43L124.24,463.44a49.32,49.32,0,0,1-24.81-18l-72-99A49.3,49.3,0,0,1,18,317.21V194.79a49.31,49.31,0,0,1,9.48-29.16l72-99a49.3,49.3,0,0,1,24.81-18L240.67,10.73a49.61,49.61,0,0,1,30.66,0L387.76,48.56a49.3,49.3,0,0,1,24.81,18l72,99A49.3,49.3,0,0,1,494,194.79V317.21a49.3,49.3,0,0,1-9.48,29.16l-72,99a49.32,49.32,0,0,1-24.8,18L271.33,501.27A49.54,49.54,0,0,1,256,503.69Z" transform="translate(-14 -4.31)"/><path class="cls-2" d="M34,194.79V317.21A33.61,33.61,0,0,0,40.42,337l72,99a33.61,33.61,0,0,0,16.81,12.21L245.61,486a33.61,33.61,0,0,0,20.77,0l116.43-37.83A33.61,33.61,0,0,0,399.62,436l72-99A33.61,33.61,0,0,0,478,317.21V194.79A33.61,33.61,0,0,0,471.58,175l-72-99a33.61,33.61,0,0,0-16.81-12.21L266.39,26a33.61,33.61,0,0,0-20.77,0L129.18,63.78A33.61,33.61,0,0,0,112.38,76l-72,99A33.61,33.61,0,0,0,34,194.79Z" transform="translate(-14 -4.31)"/><path class="cls-2" d="M256,503.69a49.53,49.53,0,0,1-15.33-2.43L124.24,463.44a49.32,49.32,0,0,1-24.81-18l-72-99A49.3,49.3,0,0,1,18,317.21V194.79a49.31,49.31,0,0,1,9.48-29.16l72-99a49.3,49.3,0,0,1,24.81-18L240.67,10.73a49.61,49.61,0,0,1,30.66,0L387.76,48.56a49.3,49.3,0,0,1,24.81,18l72,99A49.3,49.3,0,0,1,494,194.79V317.21a49.3,49.3,0,0,1-9.48,29.16l-72,99a49.32,49.32,0,0,1-24.8,18L271.33,501.27A49.54,49.54,0,0,1,256,503.69Z" transform="translate(-14 -4.31)"/><path d="M212,296.46a23.15,23.15,0,0,1-.22,3.45,8.25,8.25,0,0,1-.62,2.25,3.06,3.06,0,0,1-.91,1.2,1.94,1.94,0,0,1-1.16.36H157.29a1.83,1.83,0,0,1-1.09-.36,3,3,0,0,1-.91-1.2,8.2,8.2,0,0,1-.62-2.25,23.09,23.09,0,0,1-.22-3.45,28.41,28.41,0,0,1,.18-3.52,8,8,0,0,1,.58-2.29,3.36,3.36,0,0,1,.91-1.27,1.83,1.83,0,0,1,1.16-.4h17.49V227.88l-15.1,8.35a11.07,11.07,0,0,1-2.72,1,1.79,1.79,0,0,1-1.67-.44,3.76,3.76,0,0,1-.83-2.14,32.2,32.2,0,0,1-.22-4.28q0-1.74.07-2.87a6.93,6.93,0,0,1,.36-1.92,3.5,3.5,0,0,1,.8-1.31,9.18,9.18,0,0,1,1.38-1.09L177,210.1a3,3,0,0,1,.91-.47,7.61,7.61,0,0,1,1.42-.29q.87-.11,2.29-.15t3.67,0q2.76,0,4.46.11a12.78,12.78,0,0,1,2.58.36,2,2,0,0,1,1.16.69,1.93,1.93,0,0,1,.29,1.09V289h15.31a2,2,0,0,1,1.2.4,3.17,3.17,0,0,1,.94,1.27,8,8,0,0,1,.58,2.29A28.49,28.49,0,0,1,212,296.46Z" transform="translate(-14 -4.31)"/><path d="M290.1,256.4a104.21,104.21,0,0,1-1.81,20.32,44.57,44.57,0,0,1-5.92,15.46,27.65,27.65,0,0,1-10.67,9.8q-6.57,3.41-16.08,3.41t-16-3.3a24.91,24.91,0,0,1-10-9.51,43.22,43.22,0,0,1-5.19-15.17A124.67,124.67,0,0,1,223,257.13a102.22,102.22,0,0,1,1.85-20.29,45.05,45.05,0,0,1,6-15.49,27.65,27.65,0,0,1,10.67-9.8q6.57-3.41,16-3.41,9.65,0,16,3.3a24.85,24.85,0,0,1,10.05,9.51,42.76,42.76,0,0,1,5.15,15.17A127.63,127.63,0,0,1,290.1,256.4Zm-19.23.94q0-6.68-.36-11.79a71.29,71.29,0,0,0-1.12-8.89,32.78,32.78,0,0,0-1.89-6.39,12.91,12.91,0,0,0-2.72-4.17,9.16,9.16,0,0,0-3.63-2.21,14.65,14.65,0,0,0-4.5-.65,11.57,11.57,0,0,0-7.08,2.07,13.74,13.74,0,0,0-4.43,6.21,39.81,39.81,0,0,0-2.29,10.31,138.31,138.31,0,0,0-.65,14.37,141.58,141.58,0,0,0,.8,16.58,38,38,0,0,0,2.5,10.45,11.19,11.19,0,0,0,4.39,5.44,12.63,12.63,0,0,0,6.46,1.56,12.92,12.92,0,0,0,5-.91,10.53,10.53,0,0,0,3.81-2.72,15,15,0,0,0,2.72-4.57,35.37,35.37,0,0,0,1.78-6.39,62.78,62.78,0,0,0,.94-8.2Q270.87,262.86,270.87,257.34Z" transform="translate(-14 -4.31)"/><path d="M365.44,256.4a104.14,104.14,0,0,1-1.81,20.32,44.55,44.55,0,0,1-5.92,15.46A27.65,27.65,0,0,1,347,302q-6.57,3.41-16.08,3.41t-16-3.3a24.91,24.91,0,0,1-10-9.51,43.2,43.2,0,0,1-5.19-15.17,124.67,124.67,0,0,1-1.49-20.28,102.22,102.22,0,0,1,1.85-20.29,45.07,45.07,0,0,1,6-15.49,27.66,27.66,0,0,1,10.67-9.8q6.57-3.41,16-3.41,9.65,0,16,3.3a24.86,24.86,0,0,1,10.05,9.51A42.78,42.78,0,0,1,364,236.12,127.75,127.75,0,0,1,365.44,256.4Zm-19.23.94q0-6.68-.36-11.79a71.11,71.11,0,0,0-1.12-8.89,32.72,32.72,0,0,0-1.89-6.39,12.91,12.91,0,0,0-2.72-4.17,9.17,9.17,0,0,0-3.63-2.21,14.65,14.65,0,0,0-4.5-.65,11.57,11.57,0,0,0-7.08,2.07,13.75,13.75,0,0,0-4.43,6.21,39.79,39.79,0,0,0-2.29,10.31,138.31,138.31,0,0,0-.65,14.37,141.46,141.46,0,0,0,.8,16.58,37.93,37.93,0,0,0,2.5,10.45,11.19,11.19,0,0,0,4.39,5.44,12.63,12.63,0,0,0,6.46,1.56,12.92,12.92,0,0,0,5-.91,10.52,10.52,0,0,0,3.81-2.72,15,15,0,0,0,2.72-4.57,35.45,35.45,0,0,0,1.78-6.39,63,63,0,0,0,.94-8.2Q346.2,262.86,346.2,257.34Z" transform="translate(-14 -4.31)"/></svg>