<svg id="D10" xmlns="http://www.w3.org/2000/svg" viewBox="0 0 497.85 474.15"><defs><style>.cls-1{fill:#fff;}.cls-2,.cls-3{fill:none;stroke:#000;stroke-miterlimit:10;}.cls-2{stroke-width:8px;}.cls-3{stroke-width:6px;}</style></defs><title>d10_alt_svg</title><path class="cls-1" d="M256,492.08a21.74,21.74,0,0,1-14.26-5.26l-221.37-192a28.48,28.48,0,0,1-9.29-20.36V243.53a28.48,28.48,0,0,1,9.29-20.36l221.37-192a21.95,21.95,0,0,1,28.52,0l221.37,192a28.47,28.47,0,0,1,9.29,20.36v30.94a28.47,28.47,0,0,1-9.3,20.36l-221.37,192A21.74,21.74,0,0,1,256,492.08Z" transform="translate(-7.07 -21.92)"/><path class="cls-2" d="M259.78,43.28a6,6,0,0,0-7.55,0l-221.37,192a12.51,12.51,0,0,0-3.78,8.28v30.93a12.51,12.51,0,0,0,3.78,8.28l221.37,192a6,6,0,0,0,7.55,0l221.37-192a12.51,12.51,0,0,0,3.78-8.28V243.53a12.51,12.51,0,0,0-3.78-8.28Z" transform="translate(-7.07 -21.92)"/><path class="cls-2" d="M256,492.08a21.74,21.74,0,0,1-14.26-5.26l-221.37-192a28.48,28.48,0,0,1-9.29-20.36V243.53a28.48,28.48,0,0,1,9.29-20.36l221.37-192a21.95,21.95,0,0,1,28.52,0l221.37,192a28.47,28.47,0,0,1,9.29,20.36v30.94a28.47,28.47,0,0,1-9.3,20.36l-221.37,192A21.74,21.74,0,0,1,256,492.08Z" transform="translate(-7.07 -21.92)"/><polyline class="cls-3" points="248.93 18.07 107.92 214.07 248.93 260.07 248.93 456.07"/><line class="cls-3" x1="107.93" y1="214.08" x2="19.93" y2="257.08"/><polyline class="cls-3" points="248.93 18.07 389.93 214.07 248.93 260.07 248.93 456.07"/><line class="cls-3" x1="389.93" y1="214.08" x2="477.93" y2="257.08"/><path d="M252.86,193.38a93.21,93.21,0,0,1-1.63,18.21,39.91,39.91,0,0,1-5.3,13.85,24.78,24.78,0,0,1-9.56,8.78,31,31,0,0,1-14.4,3.06q-8.65,0-14.31-3a22.32,22.32,0,0,1-9-8.52A38.73,38.73,0,0,1,194,212.21,111.75,111.75,0,0,1,192.71,194a91.57,91.57,0,0,1,1.66-18.18A40.36,40.36,0,0,1,199.7,162a24.78,24.78,0,0,1,9.56-8.78,30.82,30.82,0,0,1,14.34-3.06q8.65,0,14.34,3a22.27,22.27,0,0,1,9,8.52,38.33,38.33,0,0,1,4.62,13.59A114.52,114.52,0,0,1,252.86,193.38Zm-17.23.85q0-6-.32-10.57a63.59,63.59,0,0,0-1-8A29.3,29.3,0,0,0,232.6,170a11.56,11.56,0,0,0-2.44-3.74,8.21,8.21,0,0,0-3.25-2,13.13,13.13,0,0,0-4-.59,10.37,10.37,0,0,0-6.34,1.85,12.31,12.31,0,0,0-4,5.56,35.67,35.67,0,0,0-2,9.23,124,124,0,0,0-.58,12.88,126.82,126.82,0,0,0,.72,14.86,34,34,0,0,0,2.24,9.36,10,10,0,0,0,3.93,4.88,11.32,11.32,0,0,0,5.79,1.4,11.58,11.58,0,0,0,4.49-.81,9.42,9.42,0,0,0,3.41-2.44,13.41,13.41,0,0,0,2.44-4.1,31.86,31.86,0,0,0,1.59-5.72,56.54,56.54,0,0,0,.85-7.35Q235.62,199.17,235.63,194.22Z" transform="translate(-7.07 -21.92)"/><path d="M320.36,193.38a93.33,93.33,0,0,1-1.62,18.21,39.9,39.9,0,0,1-5.3,13.85,24.77,24.77,0,0,1-9.56,8.78,31,31,0,0,1-14.4,3.06q-8.65,0-14.31-3a22.31,22.31,0,0,1-9-8.52,38.74,38.74,0,0,1-4.65-13.59A111.76,111.76,0,0,1,260.21,194a91.57,91.57,0,0,1,1.66-18.18A40.33,40.33,0,0,1,267.2,162a24.79,24.79,0,0,1,9.56-8.78,30.82,30.82,0,0,1,14.34-3.06q8.65,0,14.34,3a22.27,22.27,0,0,1,9,8.52,38.32,38.32,0,0,1,4.62,13.59A114.46,114.46,0,0,1,320.36,193.38Zm-17.23.85q0-6-.32-10.57a63.88,63.88,0,0,0-1-8A29.26,29.26,0,0,0,300.1,170a11.54,11.54,0,0,0-2.44-3.74,8.2,8.2,0,0,0-3.25-2,13.14,13.14,0,0,0-4-.59,10.36,10.36,0,0,0-6.34,1.85,12.32,12.32,0,0,0-4,5.56,35.71,35.71,0,0,0-2,9.23,124.42,124.42,0,0,0-.58,12.88,126.62,126.62,0,0,0,.71,14.86,34,34,0,0,0,2.24,9.36,10,10,0,0,0,3.93,4.88,11.32,11.32,0,0,0,5.79,1.4,11.58,11.58,0,0,0,4.49-.81,9.43,9.43,0,0,0,3.41-2.44,13.39,13.39,0,0,0,2.44-4.1,31.82,31.82,0,0,0,1.59-5.72,56.79,56.79,0,0,0,.85-7.35Q303.12,199.17,303.13,194.22Z" transform="translate(-7.07 -21.92)"/></svg>