<svg id="D12" xmlns="http://www.w3.org/2000/svg" viewBox="0 0 482 501.11"><defs><style>.cls-1{fill:#fff;}.cls-2,.cls-3,.cls-4{fill:none;stroke:#000;stroke-miterlimit:10;}.cls-2{stroke-width:8px;}.cls-3,.cls-4{stroke-width:6px;}.cls-4{stroke-linecap:square;}</style></defs><title>d12_svg</title><path class="cls-1" d="M256,502.56A51.25,51.25,0,0,1,240.14,500L125.39,462.76a51,51,0,0,1-25.66-18.64L28.8,346.5A51,51,0,0,1,19,316.33V195.67a51,51,0,0,1,9.8-30.17L99.72,67.89a51,51,0,0,1,25.66-18.65L240.14,12a51.31,51.31,0,0,1,31.72,0L386.61,49.24a51,51,0,0,1,25.66,18.65L483.2,165.5a51,51,0,0,1,9.8,30.17V316.33a51,51,0,0,1-9.8,30.17l-70.92,97.61a51,51,0,0,1-25.66,18.65L271.86,500A51.24,51.24,0,0,1,256,502.56Z" transform="translate(-15 -5.44)"/><path class="cls-2" d="M35,195.67V316.33a35.33,35.33,0,0,0,6.75,20.76l70.92,97.61a35.33,35.33,0,0,0,17.66,12.83l114.75,37.29a35.33,35.33,0,0,0,21.83,0l114.75-37.29a35.33,35.33,0,0,0,17.66-12.83l70.92-97.61A35.33,35.33,0,0,0,477,316.33V195.67a35.33,35.33,0,0,0-6.75-20.76L399.33,77.29a35.33,35.33,0,0,0-17.66-12.83L266.92,27.17a35.33,35.33,0,0,0-21.83,0L130.33,64.46a35.33,35.33,0,0,0-17.66,12.83L41.75,174.91A35.33,35.33,0,0,0,35,195.67Z" transform="translate(-15 -5.44)"/><path class="cls-2" d="M256,502.56A51.25,51.25,0,0,1,240.14,500L125.39,462.76a51,51,0,0,1-25.66-18.64L28.8,346.5A51,51,0,0,1,19,316.33V195.67a51,51,0,0,1,9.8-30.17L99.72,67.89a51,51,0,0,1,25.66-18.65L240.14,12a51.31,51.31,0,0,1,31.72,0L386.61,49.24a51,51,0,0,1,25.66,18.65L483.2,165.5a51,51,0,0,1,9.8,30.17V316.33a51,51,0,0,1-9.8,30.17l-70.92,97.61a51,51,0,0,1-25.66,18.65L271.86,500A51.24,51.24,0,0,1,256,502.56Z" transform="translate(-15 -5.44)"/><path class="cls-1" d="M263.57,115.66a14.71,14.71,0,0,0-16.18,0L124,205.3a14.71,14.71,0,0,0-5,15.39l47.12,145a14.71,14.71,0,0,0,13.09,9.51h152.5a14.71,14.71,0,0,0,13.09-9.51l47.12-145a14.71,14.71,0,0,0-5-15.39Z" transform="translate(-15 -5.44)"/><path class="cls-3" d="M263.57,115.66a14.71,14.71,0,0,0-16.18,0L124,205.3a14.71,14.71,0,0,0-5,15.39l47.12,145a14.71,14.71,0,0,0,13.09,9.51h152.5a14.71,14.71,0,0,0,13.09-9.51l47.12-145a14.71,14.71,0,0,0-5-15.39Z" transform="translate(-15 -5.44)"/><line class="cls-4" x1="241" y1="104.26" x2="241" y2="20.22"/><line class="cls-4" x1="380.03" y1="205.94" x2="459.93" y2="177.93"/><line class="cls-4" x1="327.12" y1="369.88" x2="375.88" y2="437.32"/><line class="cls-4" x1="100.93" y1="205.94" x2="21.04" y2="177.93"/><line class="cls-4" x1="153.84" y1="369.88" x2="105.08" y2="437.32"/><path d="M247.33,303.14a27,27,0,0,1-.25,4,9.64,9.64,0,0,1-.72,2.63,3.57,3.57,0,0,1-1.06,1.4,2.27,2.27,0,0,1-1.36.42H183.38a2.14,2.14,0,0,1-1.27-.42,3.55,3.55,0,0,1-1.06-1.4,9.6,9.6,0,0,1-.72-2.63,27,27,0,0,1-.25-4,33.18,33.18,0,0,1,.21-4.11,9.34,9.34,0,0,1,.68-2.67,3.93,3.93,0,0,1,1.06-1.48,2.14,2.14,0,0,1,1.36-.47h20.44V223l-17.64,9.75a12.94,12.94,0,0,1-3.18,1.15,2.09,2.09,0,0,1-2-.51,4.4,4.4,0,0,1-1-2.5,37.56,37.56,0,0,1-.25-5q0-2,.08-3.35a8.11,8.11,0,0,1,.42-2.25,4.09,4.09,0,0,1,.93-1.53,10.74,10.74,0,0,1,1.61-1.27l23.58-15.27a3.41,3.41,0,0,1,1.06-.55,8.88,8.88,0,0,1,1.65-.34q1-.13,2.67-.17t4.28,0q3.22,0,5.22.13a14.91,14.91,0,0,1,3,.42,2.38,2.38,0,0,1,1.36.81,2.25,2.25,0,0,1,.34,1.27V294.4h17.9a2.32,2.32,0,0,1,1.4.47,3.71,3.71,0,0,1,1.1,1.48,9.4,9.4,0,0,1,.68,2.67A33.37,33.37,0,0,1,247.33,303.14Z" transform="translate(-15 -5.44)"/><path d="M336.4,302.54a35.54,35.54,0,0,1-.21,4.2,12.14,12.14,0,0,1-.64,2.84,3.24,3.24,0,0,1-1.1,1.57,2.63,2.63,0,0,1-1.53.47H269.81a13.4,13.4,0,0,1-3.22-.34,4.17,4.17,0,0,1-2.21-1.32,6.15,6.15,0,0,1-1.23-2.84,25,25,0,0,1-.38-4.83,38.53,38.53,0,0,1,.25-4.79,13.16,13.16,0,0,1,.93-3.56,16.51,16.51,0,0,1,1.74-3.05,30.7,30.7,0,0,1,2.76-3.27l19-20.36a100.25,100.25,0,0,0,9.16-10.81,63,63,0,0,0,5.43-8.91,33.08,33.08,0,0,0,2.67-7.42,31.12,31.12,0,0,0,.72-6.45,15.7,15.7,0,0,0-.89-5.3,12.48,12.48,0,0,0-2.63-4.37,12,12,0,0,0-4.37-2.93,16.52,16.52,0,0,0-6.19-1.06,28.28,28.28,0,0,0-8.86,1.27,42.62,42.62,0,0,0-6.79,2.84q-2.93,1.57-4.88,2.88a6.21,6.21,0,0,1-3.05,1.31,1.87,1.87,0,0,1-1.31-.51,3.62,3.62,0,0,1-.89-1.7,19.43,19.43,0,0,1-.55-3.18,47.13,47.13,0,0,1-.21-4.88q0-2,.13-3.27a14.83,14.83,0,0,1,.38-2.29,6.65,6.65,0,0,1,.68-1.7,8.81,8.81,0,0,1,1.48-1.74,20.2,20.2,0,0,1,3.9-2.59,48.16,48.16,0,0,1,7-3.05,67,67,0,0,1,9.16-2.5,52.21,52.21,0,0,1,10.43-1,46.84,46.84,0,0,1,15,2.16,29.71,29.71,0,0,1,10.65,6,24.18,24.18,0,0,1,6.32,9.16A31,31,0,0,1,332,228.66a54.35,54.35,0,0,1-1,10.52,40.18,40.18,0,0,1-4.24,11.15,88.55,88.55,0,0,1-9.08,13.23,212.35,212.35,0,0,1-15.52,16.84l-12.81,13.15h43.26a2.66,2.66,0,0,1,1.57.51,4,4,0,0,1,1.23,1.57,9.88,9.88,0,0,1,.76,2.8A28.8,28.8,0,0,1,336.4,302.54Z" transform="translate(-15 -5.44)"/></svg>