<svg id="D20" xmlns="http://www.w3.org/2000/svg" viewBox="0 0 442 497.83"><defs><style>.cls-1,.cls-3{fill:#fff;}.cls-2{fill:none;}.cls-2,.cls-3{stroke:#000;stroke-miterlimit:10;stroke-width:8px;}</style></defs><title>d20_svg</title><path class="cls-1" d="M256,500.91a36.61,36.61,0,0,1-18.28-4.9L57.28,391.84A36.66,36.66,0,0,1,39,360.18V151.82a36.66,36.66,0,0,1,18.28-31.66L237.72,16a36.56,36.56,0,0,1,36.56,0L454.72,120.16A36.66,36.66,0,0,1,473,151.82V360.18a36.66,36.66,0,0,1-18.28,31.66L274.28,496A36.61,36.61,0,0,1,256,500.91Z" transform="translate(-35 -7.09)"/><path class="cls-2" d="M55,151.82V360.18A20.56,20.56,0,0,0,65.28,378L245.72,482.16a20.56,20.56,0,0,0,20.56,0L446.72,378A20.56,20.56,0,0,0,457,360.18V151.82A20.56,20.56,0,0,0,446.72,134L266.28,29.84a20.56,20.56,0,0,0-20.56,0L65.28,134A20.56,20.56,0,0,0,55,151.82Z" transform="translate(-35 -7.09)"/><path class="cls-2" d="M256,500.91a36.61,36.61,0,0,1-18.28-4.9L57.28,391.84A36.66,36.66,0,0,1,39,360.18V151.82a36.66,36.66,0,0,1,18.28-31.66L237.72,16a36.56,36.56,0,0,1,36.56,0L454.72,120.16A36.66,36.66,0,0,1,473,151.82V360.18a36.66,36.66,0,0,1-18.28,31.66L274.28,496A36.61,36.61,0,0,1,256,500.91Z" transform="translate(-35 -7.09)"/><polygon class="cls-3" points="221 108.25 99.18 319.25 342.82 319.25 221 108.25"/><line class="cls-2" x1="99.18" y1="319.28" x2="22.51" y2="134.44"/><line class="cls-2" x1="221" y1="108.19" x2="22.51" y2="134.44"/><line class="cls-2" x1="221" y1="19.97" x2="221" y2="108.19"/><line class="cls-2" x1="22.51" y1="363.39" x2="99.18" y2="319.28"/><line class="cls-2" x1="221" y1="477.86" x2="99.18" y2="319.28"/><line class="cls-2" x1="342.82" y1="319.28" x2="419.49" y2="134.44"/><line class="cls-2" x1="221" y1="108.19" x2="419.49" y2="134.44"/><line class="cls-2" x1="419.49" y1="363.39" x2="342.82" y2="319.28"/><line class="cls-2" x1="221" y1="477.86" x2="342.82" y2="319.28"/><path d="M251.52,283.83a22.93,22.93,0,0,1-.14,2.7,7.87,7.87,0,0,1-.41,1.83,2.09,2.09,0,0,1-.71,1,1.69,1.69,0,0,1-1,.3H208.63a8.6,8.6,0,0,1-2.08-.22,2.68,2.68,0,0,1-1.42-.85,4,4,0,0,1-.79-1.83,16,16,0,0,1-.25-3.11,24.83,24.83,0,0,1,.16-3.09,8.46,8.46,0,0,1,.6-2.29,10.65,10.65,0,0,1,1.12-2,19.93,19.93,0,0,1,1.78-2.1L220,261.1a64.45,64.45,0,0,0,5.9-7,40.55,40.55,0,0,0,3.5-5.74,21.3,21.3,0,0,0,1.72-4.78,20,20,0,0,0,.46-4.15A10.1,10.1,0,0,0,231,236a8,8,0,0,0-1.69-2.81,7.75,7.75,0,0,0-2.81-1.89,10.64,10.64,0,0,0-4-.68,18.22,18.22,0,0,0-5.71.82,27.5,27.5,0,0,0-4.37,1.83q-1.88,1-3.14,1.86a4,4,0,0,1-2,.85,1.21,1.21,0,0,1-.85-.33,2.34,2.34,0,0,1-.57-1.09,12.49,12.49,0,0,1-.35-2,30.32,30.32,0,0,1-.14-3.14q0-1.26.08-2.1a9.57,9.57,0,0,1,.25-1.48,4.28,4.28,0,0,1,.44-1.09,5.69,5.69,0,0,1,1-1.12,13,13,0,0,1,2.51-1.67,31,31,0,0,1,4.51-2,43.09,43.09,0,0,1,5.9-1.61,33.64,33.64,0,0,1,6.72-.66,30.17,30.17,0,0,1,9.64,1.39,19.14,19.14,0,0,1,6.86,3.88,15.57,15.57,0,0,1,4.07,5.9,20,20,0,0,1,1.34,7.35A35,35,0,0,1,248,243a25.88,25.88,0,0,1-2.73,7.18,57.07,57.07,0,0,1-5.85,8.52,136.61,136.61,0,0,1-10,10.84L221.2,278h27.86a1.72,1.72,0,0,1,1,.33,2.56,2.56,0,0,1,.79,1,6.37,6.37,0,0,1,.49,1.8A18.57,18.57,0,0,1,251.52,283.83Z" transform="translate(-35 -7.09)"/><path d="M309.65,254a78.33,78.33,0,0,1-1.37,15.3A33.54,33.54,0,0,1,303.83,281a20.81,20.81,0,0,1-8,7.38,30,30,0,0,1-24.12.08,18.75,18.75,0,0,1-7.54-7.16,32.54,32.54,0,0,1-3.91-11.42,93.72,93.72,0,0,1-1.12-15.27,76.86,76.86,0,0,1,1.39-15.27A33.92,33.92,0,0,1,265,227.66a20.82,20.82,0,0,1,8-7.38,30,30,0,0,1,24.09-.08,18.71,18.71,0,0,1,7.57,7.16,32.2,32.2,0,0,1,3.88,11.42A96.18,96.18,0,0,1,309.65,254Zm-14.48.71q0-5-.27-8.88a53.52,53.52,0,0,0-.85-6.69,24.63,24.63,0,0,0-1.42-4.81,9.73,9.73,0,0,0-2-3.14,6.9,6.9,0,0,0-2.73-1.67,11,11,0,0,0-3.39-.49,8.71,8.71,0,0,0-5.33,1.56,10.35,10.35,0,0,0-3.33,4.67,29.94,29.94,0,0,0-1.72,7.76,104,104,0,0,0-.49,10.82,106.29,106.29,0,0,0,.6,12.48,28.54,28.54,0,0,0,1.88,7.87,8.43,8.43,0,0,0,3.3,4.1,9.51,9.51,0,0,0,4.86,1.17,9.73,9.73,0,0,0,3.77-.68,7.94,7.94,0,0,0,2.87-2,11.3,11.3,0,0,0,2-3.44,27,27,0,0,0,1.34-4.81,47.35,47.35,0,0,0,.71-6.17Q295.17,258.91,295.17,254.76Z" transform="translate(-35 -7.09)"/></svg>