<svg id="D2" xmlns="http://www.w3.org/2000/svg" viewBox="0 0 498 498"><defs><style>.cls-1{fill:#fff;}.cls-2{fill:none;stroke:#000;stroke-miterlimit:10;stroke-width:8px;}</style></defs><title>d2_svg</title><path class="cls-1" d="M256.5,501.5A245,245,0,0,1,83.26,83.26,245,245,0,0,1,429.74,429.74,243.4,243.4,0,0,1,256.5,501.5Z" transform="translate(-7.5 -7.5)"/><circle class="cls-2" cx="249" cy="249" r="229"/><path class="cls-2" d="M256.5,501.5A245,245,0,0,1,83.26,83.26,245,245,0,0,1,429.74,429.74,243.4,243.4,0,0,1,256.5,501.5Z" transform="translate(-7.5 -7.5)"/><path d="M307.38,320.43a49.21,49.21,0,0,1-.29,5.81,16.94,16.94,0,0,1-.88,3.93,4.5,4.5,0,0,1-1.53,2.17,3.64,3.64,0,0,1-2.11.65H215.27a18.52,18.52,0,0,1-4.46-.47,5.77,5.77,0,0,1-3.05-1.82,8.52,8.52,0,0,1-1.7-3.93,34.45,34.45,0,0,1-.53-6.69,53.32,53.32,0,0,1,.35-6.63,18.16,18.16,0,0,1,1.29-4.93,22.86,22.86,0,0,1,2.41-4.22,42.64,42.64,0,0,1,3.81-4.52l26.28-28.16a138.67,138.67,0,0,0,12.67-15,87.15,87.15,0,0,0,7.51-12.32,45.71,45.71,0,0,0,3.7-10.27,43,43,0,0,0,1-8.92,21.71,21.71,0,0,0-1.23-7.33,17.26,17.26,0,0,0-3.64-6,16.65,16.65,0,0,0-6-4,22.84,22.84,0,0,0-8.57-1.47A39.12,39.12,0,0,0,232.82,208a59,59,0,0,0-9.39,3.93q-4,2.17-6.75,4t-4.22,1.82a2.59,2.59,0,0,1-1.82-.7,5,5,0,0,1-1.23-2.35,26.85,26.85,0,0,1-.76-4.4,65.06,65.06,0,0,1-.29-6.75q0-2.7.18-4.52a20.54,20.54,0,0,1,.53-3.17,9.15,9.15,0,0,1,.94-2.35,12.2,12.2,0,0,1,2.05-2.41,27.92,27.92,0,0,1,5.4-3.58,66.64,66.64,0,0,1,9.68-4.22,92.71,92.71,0,0,1,12.67-3.46,72.23,72.23,0,0,1,14.43-1.41,64.79,64.79,0,0,1,20.71,3,41.1,41.1,0,0,1,14.72,8.33,33.45,33.45,0,0,1,8.74,12.67,42.87,42.87,0,0,1,2.87,15.78,75.2,75.2,0,0,1-1.41,14.55A55.6,55.6,0,0,1,294,248.21a122.54,122.54,0,0,1-12.55,18.3A293.59,293.59,0,0,1,260,289.81L242.26,308H302.1a3.69,3.69,0,0,1,2.17.7,5.48,5.48,0,0,1,1.7,2.17,13.7,13.7,0,0,1,1.06,3.87A40,40,0,0,1,307.38,320.43Z" transform="translate(-7.5 -7.5)"/></svg>