<svg id="D4" xmlns="http://www.w3.org/2000/svg" viewBox="0 0 504.94 445.5"><defs><style>.cls-1{fill:#fff;}.cls-2{fill:none;stroke:#000;stroke-miterlimit:10;stroke-width:8px;}</style></defs><title>d4_svg</title><path class="cls-1" d="M34.48,479.5a26.91,26.91,0,0,1-23.31-40.37L232.69,55.46a26.91,26.91,0,0,1,46.61,0L500.82,439.13a26.91,26.91,0,0,1-23.31,40.37Z" transform="translate(-3.53 -38)"/><path class="cls-2" d="M246.55,63.46,25,447.13a10.91,10.91,0,0,0,9.45,16.37h443A10.91,10.91,0,0,0,487,447.13L265.45,63.46A10.91,10.91,0,0,0,246.55,63.46Z" transform="translate(-3.53 -38)"/><path class="cls-2" d="M34.48,479.5a26.91,26.91,0,0,1-23.31-40.37L232.69,55.46a26.91,26.91,0,0,1,46.61,0L500.82,439.13a26.91,26.91,0,0,1-23.31,40.37Z" transform="translate(-3.53 -38)"/><path d="M287,221.42a19.9,19.9,0,0,1-.95,7q-.95,2.4-2.57,2.39H273.11V252a2.46,2.46,0,0,1-.54,1.58,4,4,0,0,1-1.9,1.13,17,17,0,0,1-3.52.68q-2.17.22-5.6.23-3.25,0-5.47-.23a16.19,16.19,0,0,1-3.52-.68,3.65,3.65,0,0,1-1.81-1.13,2.6,2.6,0,0,1-.5-1.58V230.81H205.52a7.4,7.4,0,0,1-2.26-.32,3.05,3.05,0,0,1-1.67-1.45,9,9,0,0,1-1-3.25,39.86,39.86,0,0,1-.32-5.65q0-2.89.14-5a32.68,32.68,0,0,1,.45-3.84,18.41,18.41,0,0,1,.9-3.25,30,30,0,0,1,1.49-3.25l36.32-64.06a3.7,3.7,0,0,1,1.54-1.4,11.45,11.45,0,0,1,3-1,35.25,35.25,0,0,1,4.92-.59q3-.18,7.23-.18,4.61,0,7.86.23a30.43,30.43,0,0,1,5.2.72,7.72,7.72,0,0,1,2.85,1.22,2.15,2.15,0,0,1,.9,1.72v70.39H283.5q1.44,0,2.48,2.21T287,221.42Zm-36.78-63.34h-.18l-30.81,53.76h31Z" transform="translate(-3.53 -38)"/></svg>