<svg id="D6" xmlns="http://www.w3.org/2000/svg" viewBox="0 0 497 497"><defs><style>.cls-1{fill:#fff;}.cls-2{fill:none;stroke:#000;stroke-miterlimit:10;stroke-width:8px;}</style></defs><title>d6_svg</title><rect class="cls-1" x="4" y="4" width="489" height="489" rx="35.5" ry="35.5"/><rect class="cls-2" x="20" y="20" width="457" height="457" rx="19.5" ry="19.5"/><rect class="cls-2" x="4" y="4" width="489" height="489" rx="35.5" ry="35.5"/><path d="M325.79,279.22a81.41,81.41,0,0,1-4.58,27.72,61.29,61.29,0,0,1-13.44,22,62.17,62.17,0,0,1-21.84,14.51q-13,5.27-29.93,5.27a82.29,82.29,0,0,1-24-3.13,53.78,53.78,0,0,1-17.72-9,47.78,47.78,0,0,1-12.22-14.28,81.15,81.15,0,0,1-7.56-18.94,132.25,132.25,0,0,1-3.89-22.91q-1.07-12.37-1.07-26.27,0-11.6,1.15-24.28A146.4,146.4,0,0,1,195.14,205a108.37,108.37,0,0,1,9.24-23.29,68.4,68.4,0,0,1,38.1-32.61q13.36-4.89,31.69-4.89a100.49,100.49,0,0,1,11.68.69q5.88.69,10.92,1.76a55.33,55.33,0,0,1,8.55,2.44,17.88,17.88,0,0,1,4.66,2.37,7.22,7.22,0,0,1,1.76,2.21,14,14,0,0,1,1,2.67,20.21,20.21,0,0,1,.54,3.59q.15,2.14.15,5.19,0,4.74-.23,7.87a20,20,0,0,1-.84,4.89,5,5,0,0,1-1.68,2.52,4.34,4.34,0,0,1-2.6.76,15.34,15.34,0,0,1-4.73-1q-2.9-1-7-2.21a78.34,78.34,0,0,0-22.6-3.05q-12.37,0-20.92,4.58a38.51,38.51,0,0,0-13.9,12.45,54.19,54.19,0,0,0-7.79,18.25,101.55,101.55,0,0,0-2.6,22,81,81,0,0,1,7.71-4.28,61.15,61.15,0,0,1,9.47-3.67,91.63,91.63,0,0,1,11.07-2.52,77.17,77.17,0,0,1,12.68-1q15,0,25.66,4.12a44.26,44.26,0,0,1,17.49,11.76,47.73,47.73,0,0,1,10,18.48A84.9,84.9,0,0,1,325.79,279.22ZM286.39,283A60.44,60.44,0,0,0,285,269.37a26.14,26.14,0,0,0-4.43-9.93,18.86,18.86,0,0,0-8.09-6.11,32.28,32.28,0,0,0-12.22-2.06,46.1,46.1,0,0,0-8.4.76,55.9,55.9,0,0,0-8.09,2.14,56.62,56.62,0,0,0-7.64,3.28,75,75,0,0,0-6.87,4,168.88,168.88,0,0,0,1.83,27.26q1.83,10.92,5.42,17.33a21.22,21.22,0,0,0,9,9.09,28.13,28.13,0,0,0,12.6,2.67,27.48,27.48,0,0,0,12.29-2.6,24,24,0,0,0,8.78-7.33,34.44,34.44,0,0,0,5.34-11.07A49.59,49.59,0,0,0,286.39,283Z" transform="translate(-7.5 -7.5)"/><path d="M176.73,390.86V370.39H335.26v20.46Z" transform="translate(-7.5 -7.5)"/></svg>