<svg id="D8" xmlns="http://www.w3.org/2000/svg" viewBox="0 0 496.4 496.42"><defs><style>.cls-1{fill:#fff;}.cls-2,.cls-3{fill:none;stroke:#000;stroke-miterlimit:10;}.cls-2{stroke-width:8px;}.cls-3{stroke-width:5px;}</style></defs><title>d8_svg</title><path class="cls-1" d="M256,500.21a37,37,0,0,1-26.32-10.9l-207-207a37.26,37.26,0,0,1,0-52.64l207-207a37.22,37.22,0,0,1,52.64,0l207,207a37.22,37.22,0,0,1,0,52.64l-207,207A37,37,0,0,1,256,500.21Z" transform="translate(-7.81 -7.79)"/><rect class="cls-2" x="88.42" y="88.42" width="335.17" height="335.17" rx="21.22" ry="21.22" transform="translate(-113.85 248.21) rotate(-45)"/><path class="cls-2" d="M256,500.21a37,37,0,0,1-26.32-10.9l-207-207a37.26,37.26,0,0,1,0-52.64l207-207a37.22,37.22,0,0,1,52.64,0l207,207a37.22,37.22,0,0,1,0,52.64l-207,207A37,37,0,0,1,256,500.21Z" transform="translate(-7.81 -7.79)"/><line class="cls-3" x1="19.69" y1="247.71" x2="476.69" y2="248.71"/><line class="cls-3" x1="248.69" y1="19.71" x2="248.77" y2="476.71"/><path d="M387.57,192q4.55,7.88,5.38,14.05t-2,10.43q-2.87,4.25-9.48,6.44t-16.9,2.19a82.13,82.13,0,0,1-18.41-2,64.6,64.6,0,0,1-15.78-5.77,55.53,55.53,0,0,1-12.95-9.4,59.09,59.09,0,0,1-9.92-12.85,34.91,34.91,0,0,1-3.87-9.26,18.53,18.53,0,0,1-.26-8.06,17.36,17.36,0,0,1,3.22-7,31.72,31.72,0,0,1,6.39-6.22,121.56,121.56,0,0,1-11.36-5.42,80.26,80.26,0,0,1-9.94-6.36,58.46,58.46,0,0,1-8.31-7.56,52.36,52.36,0,0,1-6.51-9A36.32,36.32,0,0,1,272,123.68a14.63,14.63,0,0,1,1.66-9.85q2.47-4.16,8.52-6.4t15.72-2.24a70.9,70.9,0,0,1,17.61,2.06,58.27,58.27,0,0,1,14.59,5.82,53.52,53.52,0,0,1,11.68,9,57.88,57.88,0,0,1,8.8,11.59,29.79,29.79,0,0,1,3.34,8.19,21.88,21.88,0,0,1,.47,7.56,17.69,17.69,0,0,1-2.28,6.76,21.26,21.26,0,0,1-5,5.77q7.11,2.87,13.27,6.09A89.92,89.92,0,0,1,371.63,175a66.56,66.56,0,0,1,9.09,7.92A48.36,48.36,0,0,1,387.57,192Zm-58.42-56.21a30.72,30.72,0,0,0-4.15-5.64,24,24,0,0,0-5.27-4.25,24.79,24.79,0,0,0-6.27-2.64,27.71,27.71,0,0,0-7.19-.89q-7.52,0-9.2,3.45t1.83,9.53a27,27,0,0,0,4,5.28,33.83,33.83,0,0,0,5.54,4.57,59.7,59.7,0,0,0,7.53,4.21q4.32,2.06,10,4.39a16,16,0,0,0,5.32-8.23Q332.25,141.18,329.15,135.81Zm36.07,57.83a29.73,29.73,0,0,0-4.61-6,37.47,37.47,0,0,0-6.46-5.15,70.7,70.7,0,0,0-8.64-4.65q-4.87-2.24-11-4.57a30.73,30.73,0,0,0-4.67,4.48,12.21,12.21,0,0,0-2.48,4.7,11.46,11.46,0,0,0-.09,5.19,19.6,19.6,0,0,0,2.36,5.86,27.67,27.67,0,0,0,10.67,10.65,31.71,31.71,0,0,0,15.59,3.67q8.77,0,10.94-3.76T365.22,193.64Z" transform="translate(-7.81 -7.79)"/></svg>