<svg id="Roll" xmlns="http://www.w3.org/2000/svg" viewBox="0 0 499.44 501.32"><defs><style>.cls-1,.cls-4{fill:#fff;}.cls-2,.cls-3,.cls-5{fill:none;}.cls-2,.cls-3,.cls-4,.cls-5{stroke:#000;stroke-miterlimit:10;}.cls-2{stroke-width:8px;}.cls-3{stroke-width:4px;}.cls-4,.cls-5{stroke-width:2px;}</style></defs><title>roll_svg</title><path class="cls-1" d="M239.42,436.44c-32.14,0-73.37-21.27-107.61-55.5-23.67-23.67-41.41-50.81-49.94-76.4-9.78-29.33-6.63-54,8.85-69.5L299,26.74c9.38-9,22.42-13.83,37.71-13.83,32.14,0,73.37,21.26,107.6,55.49,23.53,23.53,41.21,50.51,49.8,76,9.81,29.1,6.92,53.73-8.14,69.33L277.71,422c-9.43,9.42-22.67,14.41-38.3,14.41Z" transform="translate(-4.42 -8.91)"/><path class="cls-2" d="M310.14,38.26,102,246.35c-22.69,22.69-4.3,77.89,41.09,123.28s100.58,63.79,123.28,41.09L474.49,202.61c22.12-22.93,3.68-77.75-41.46-122.89S333.07,16.14,310.14,38.26Z" transform="translate(-4.42 -8.91)"/><path class="cls-2" d="M239.42,436.44c-32.14,0-73.37-21.27-107.61-55.5-23.67-23.67-41.41-50.81-49.94-76.4-9.78-29.33-6.63-54,8.85-69.5L299,26.74c9.38-9,22.42-13.83,37.71-13.83,32.14,0,73.37,21.26,107.6,55.49,23.53,23.53,41.21,50.51,49.8,76,9.81,29.1,6.92,53.73-8.14,69.33L277.71,422c-9.43,9.42-22.67,14.41-38.3,14.41Z" transform="translate(-4.42 -8.91)"/><ellipse class="cls-1" cx="184.22" cy="328.53" rx="58.11" ry="116.23" transform="translate(-182.77 217.58) rotate(-45)"/><path d="M239.42,404.44c-23.6,0-57-18.11-85-46.13-19.94-19.94-35.32-43.23-42.21-63.89-5.58-16.74-5.16-30.48,1.12-36.75,3.34-3.34,8.61-5,15.67-5,23.6,0,57,18.11,85,46.13,19.94,19.94,35.32,43.23,42.21,63.9,5.58,16.74,5.16,30.47-1.12,36.75C251.75,402.75,246.47,404.44,239.42,404.44Z" transform="translate(-4.42 -8.91)"/><ellipse class="cls-2" cx="184.22" cy="328.53" rx="58.11" ry="116.23" transform="translate(-182.77 217.58) rotate(-45)"/><path class="cls-2" d="M239.42,404.44c-23.6,0-57-18.11-85-46.13-19.94-19.94-35.32-43.23-42.21-63.89-5.58-16.74-5.16-30.48,1.12-36.75,3.34-3.34,8.61-5,15.67-5,23.6,0,57,18.11,85,46.13,19.94,19.94,35.32,43.23,42.21,63.9,5.58,16.74,5.16,30.47-1.12,36.75C251.75,402.75,246.47,404.44,239.42,404.44Z" transform="translate(-4.42 -8.91)"/><path class="cls-1" d="M182.23,458.17a11.19,11.19,0,0,1-9.67-5.58l-16-27.73a11.19,11.19,0,0,1,0-11.16l16-27.73a11.19,11.19,0,0,1,9.67-5.58h32a11.19,11.19,0,0,1,9.66,5.58l16,27.73a11.19,11.19,0,0,1,0,11.16l-16,27.73a11.19,11.19,0,0,1-9.66,5.58Z" transform="translate(-4.42 -8.91)"/><path class="cls-3" d="M182.23,450.17h32a3.16,3.16,0,0,0,2.74-1.58l16-27.73a3.16,3.16,0,0,0,0-3.16L217,390a3.16,3.16,0,0,0-2.74-1.58h-32a3.16,3.16,0,0,0-2.74,1.58l-16,27.73a3.16,3.16,0,0,0,0,3.16l16,27.73A3.16,3.16,0,0,0,182.23,450.17Z" transform="translate(-4.42 -8.91)"/><path class="cls-3" d="M182.23,458.17a11.19,11.19,0,0,1-9.67-5.58l-16-27.73a11.19,11.19,0,0,1,0-11.16l16-27.73a11.19,11.19,0,0,1,9.67-5.58h32a11.19,11.19,0,0,1,9.66,5.58l16,27.73a11.19,11.19,0,0,1,0,11.16l-16,27.73a11.19,11.19,0,0,1-9.66,5.58Z" transform="translate(-4.42 -8.91)"/><polygon class="cls-4" points="172.2 410.36 204.63 429.09 204.63 391.64 172.2 410.36"/><line class="cls-5" x1="204.64" y1="429.09" x2="176.23" y2="440.87"/><line class="cls-5" x1="172.19" y1="410.36" x2="176.23" y2="440.87"/><line class="cls-5" x1="158.64" y1="410.36" x2="172.19" y2="410.36"/><line class="cls-5" x1="211.42" y1="440.87" x2="204.64" y2="429.09"/><line class="cls-5" x1="229.01" y1="410.36" x2="204.64" y2="429.09"/><line class="cls-5" x1="204.64" y1="391.64" x2="176.23" y2="379.85"/><line class="cls-5" x1="172.19" y1="410.36" x2="176.23" y2="379.85"/><line class="cls-5" x1="211.42" y1="379.85" x2="204.64" y2="391.64"/><line class="cls-5" x1="229.01" y1="410.36" x2="204.64" y2="391.64"/><path class="cls-1" d="M84.15,508.23a10.29,10.29,0,0,1-6.75-2.5l-30-26a12.23,12.23,0,0,1-4.27-8.83v-3a12.23,12.23,0,0,1,4.27-8.83l30-26a10.38,10.38,0,0,1,13.5,0l30,26a12.23,12.23,0,0,1,4.27,8.83v3a12.23,12.23,0,0,1-4.27,8.83l-30,26A10.29,10.29,0,0,1,84.15,508.23Z" transform="translate(-4.42 -8.91)"/><path class="cls-3" d="M82.64,499.69a2.38,2.38,0,0,0,3,0l30-26a4.45,4.45,0,0,0,1.51-2.79v-3a4.45,4.45,0,0,0-1.51-2.79l-30-26a2.38,2.38,0,0,0-3,0l-30,26a4.45,4.45,0,0,0-1.51,2.79v3a4.45,4.45,0,0,0,1.51,2.79Z" transform="translate(-4.42 -8.91)"/><path class="cls-3" d="M84.15,508.23a10.29,10.29,0,0,1-6.75-2.5l-30-26a12.23,12.23,0,0,1-4.27-8.83v-3a12.23,12.23,0,0,1,4.27-8.83l30-26a10.38,10.38,0,0,1,13.5,0l30,26a12.23,12.23,0,0,1,4.27,8.83v3a12.23,12.23,0,0,1-4.27,8.83l-30,26A10.29,10.29,0,0,1,84.15,508.23Z" transform="translate(-4.42 -8.91)"/><polyline class="cls-5" points="79.73 492.09 100.08 463.8 79.73 457.16 79.73 428.87"/><line class="cls-5" x1="100.08" y1="463.8" x2="112.78" y2="457.59"/><polyline class="cls-5" points="79.73 492.09 59.38 463.8 79.73 457.16 79.73 428.87"/><line class="cls-5" x1="59.38" y1="463.8" x2="46.67" y2="457.59"/><path class="cls-1" d="M52.46,389a9.21,9.21,0,0,1-6.56-2.72L9.14,349.5A9.28,9.28,0,0,1,13.3,334l50.22-13.46a9.27,9.27,0,0,1,9.77,3.32,9.21,9.21,0,0,1,1.6,8L61.43,382.1a9.3,9.3,0,0,1-9,6.88Z" transform="translate(-4.42 -8.91)"/><path class="cls-3" d="M65.59,328.24,15.37,341.7a1.28,1.28,0,0,0-.57,2.14l36.77,36.77A1.28,1.28,0,0,0,53.7,380l13.46-50.22A1.28,1.28,0,0,0,65.59,328.24Z" transform="translate(-4.42 -8.91)"/><path class="cls-3" d="M52.46,389a9.21,9.21,0,0,1-6.56-2.72L9.14,349.5A9.28,9.28,0,0,1,13.3,334l50.22-13.46a9.27,9.27,0,0,1,9.77,3.32,9.21,9.21,0,0,1,1.6,8L61.43,382.1a9.3,9.3,0,0,1-9,6.88Z" transform="translate(-4.42 -8.91)"/></svg>